<svg width="110" height="19" viewBox="0 0 110 19" fill="none" xmlns="http://www.w3.org/2000/svg">
<path id="path25910" fill-rule="evenodd" clip-rule="evenodd" d="M5.37743 0C1.36175 0 0 2.88325 0 4.74479V7.35442C0 9.3504 1.78879 11.6247 4.46801 11.6247H10.0827C10.6948 11.6247 10.8339 12.0344 10.8339 12.2969V12.9691C10.8339 13.3249 10.5856 13.6413 10.0827 13.6413H0.276779V18.4651H12.1783C15.4016 18.4651 17.2394 15.5376 17.2394 13.6017V10.9526C17.2394 8.20216 14.6029 6.36592 11.9411 6.36592H6.68224C6.07175 6.36592 5.93099 5.95629 5.93099 5.69375V5.21927C5.93099 4.86341 6.18088 4.54709 6.68224 4.54709H16.4486V0H5.37743ZM19.4934 12.7318C19.4934 15.7242 21.6064 18.6628 26.571 18.6628H30.7227C35.9103 18.6628 37.6422 16.0042 37.6422 12.7318V0H31.4344V12.0992C31.4344 12.9928 31.0722 13.6808 29.8528 13.6808H27.2432C26.0254 13.6808 25.6616 13.0229 25.6616 12.0992V0H19.4934V12.7318ZM40.3306 18.4651V0H46.4593V13.6808H53.7742V18.4651H40.3306ZM55.3958 0.0397118V4.62634H63.541L55.2771 13.6414V18.4653H71.4094V13.6414H63.0665L71.1327 4.5868V0.0397118H55.3958ZM73.7814 18.4653V0.0397118H88.2926V4.54726H79.7124V6.72196H86.9087V11.269H79.7124V13.6414H88.8066V18.4653H73.7814ZM91.0209 0.0397118V18.4653H96.7542V11.6249H97.2682L102.962 18.4653H110C110 18.4653 104.616 12.1247 104.069 11.4667C105.221 11.4667 108.102 9.83454 108.102 6.52426V4.94266C108.102 3.61886 107.115 0.0397118 102.29 0.0397118H91.0209ZM100.945 4.50744H96.596V7.31477H101.064C101.842 7.31477 102.29 6.98263 102.29 6.00995C102.29 5.38522 102.268 4.50744 100.945 4.50744Z" fill="#003DA5"/>
</svg>
